<?xml version="1.0" encoding="utf-8"?>
<svg viewBox="0 0 155 155" width="155" height="155" xmlns="http://www.w3.org/2000/svg">
  <g transform="matrix(1, 0, 0, 1, 49.999992, -894.438721)" style="stroke:#000; fill:#ffffff">
    <path d="M 28.751 936.182 L -1.249 953.056 L -1.249 986.808 L -0.255 987.366 L 28.751 1003.682 L 58.751 986.807 L 58.751 953.056 L 28.751 936.182 Z M 28.751 941.879 L 40.734 959.147 L 16.768 959.147 L 28.751 941.879 Z M 22.265 944.304 L 12.413 958.504 L 4.717 954.176 L 22.265 944.304 Z M 35.237 944.304 L 52.784 954.175 L 45.09 958.503 L 35.237 944.304 Z M 2.728 957.531 L 10.425 961.86 L 2.728 977.273 L 2.728 957.531 Z M 54.773 957.531 L 54.773 977.274 L 47.076 961.86 L 54.772 957.531 Z M 16.468 963.021 L 41.034 963.021 L 28.751 983.749 L 16.468 963.021 Z M 13.172 965.213 L 25.156 985.434 L 3.815 983.957 L 13.172 965.213 Z M 44.329 965.213 L 53.687 983.957 L 32.346 985.434 L 44.329 965.213 Z M 9.211 988.216 L 26.762 989.43 L 26.762 998.088 L 9.211 988.216 Z M 48.29 988.216 L 30.739 998.088 L 30.739 989.43 L 48.29 988.216 Z" style=""/>
    <g transform="matrix(0.308511, 0, 0, 0.308511, -45.000042, 899.438721)" >
      <path d="m467.463,80.777c-1.689-1.492-3.962-2.144-6.186-1.776-12.858,2.125-25.95,3.203-38.913,3.204-67.69,0.002-132.313-28.377-181.963-79.908-1.414-1.468-3.363-2.297-5.401-2.297s-3.987,0.829-5.401,2.296c-49.646,51.527-114.269,79.906-181.964,79.909-12.958,0-26.049-1.078-38.912-3.204-2.223-0.367-4.496,0.285-6.186,1.776s-2.62,3.665-2.531,5.917c2.83,72.058 16.739,136.998 41.34,193.018 19.756,44.988 46.405,84.343 79.207,116.971 56.036,55.741 110.029,72.323 112.3,73.002 0.701,0.209 1.424,0.314 2.147,0.314s1.447-0.104 2.147-0.314c2.271-0.679 56.264-17.261 112.3-73.002 32.801-32.628 59.45-71.983 79.207-116.971 24.602-56.02 38.51-120.96 41.34-193.018 0.089-2.252-0.841-4.425-2.531-5.917zm-127.995,304.675c-47.298,47.286-94.041,65.491-104.475,69.146-10.384-3.617-56.62-21.556-103.861-68.548-48.593-48.338-107.599-137.824-115.721-290.91 10.705,1.372 21.508,2.065 32.225,2.065 35.988-0.001 71.272-7.584 104.873-22.538 30.469-13.561 58.187-32.549 82.492-56.5 24.307,23.954 52.024,42.944 82.491,56.503 33.6,14.954 68.884,22.536 104.874,22.535 10.72,0 21.522-0.694 32.224-2.065-8.094,152.641-66.788,241.99-115.122,290.312z" />
      <path d="m239.741,55.985c-2.76-2.251-6.722-2.251-9.481,0-52.202,42.579-114.258,65.471-179.46,66.202-2.124,0.024-4.137,0.946-5.542,2.539s-2.068,3.706-1.826,5.816c5.48,47.741 16.686,91.563 33.307,130.251 17.239,40.128 40.436,75.263 68.947,104.428 34.44,35.23 68.833,53.485 86.27,61.23 0.969,0.431 2.007,0.646 3.045,0.646s2.076-0.215 3.045-0.646c14.838-6.591 44.345-21.918 75.243-50.511 3.041-2.813 3.224-7.559 0.411-10.599-2.813-3.041-7.558-3.224-10.599-0.411-27.316,25.278-53.36,39.57-68.102,46.428-17.206-7.997-47.805-25.134-78.587-56.623-27.215-27.84-49.385-61.439-65.892-99.864-15.098-35.144-25.578-74.771-31.189-117.896 63.61-2.475 124.061-25.029 175.669-65.571 51.612,40.545 112.062,63.101 175.669,65.573-5.611,43.125-16.091,82.752-31.189,117.896-14.418,33.563-33.23,63.555-55.914,89.145-2.748,3.1-2.462,7.84 0.637,10.587 3.1,2.748 7.84,2.462 10.587-0.637 23.748-26.79 43.42-58.138 58.472-93.174 16.621-38.688 27.826-82.511 33.307-130.251 0.242-2.11-0.421-4.223-1.826-5.816-1.405-1.593-3.418-2.516-5.542-2.539-65.198-0.727-127.254-23.619-179.46-66.203z" style=""/>
    </g>
  </g>
</svg>